<svg class="border shadow-md" viewBox="0 0 777.5288888888889 437.36" xmlns="http://www.w3.org/2000/svg" preserveAspectRatio="none" style="width: 777.529px; height: 437.36px;"><rect class="bg" id="bg" x="0" y="0" width="777.5288888888889" height="437.36" fill="#ffffff"/><g transform="rotate(141 388.76444444444445 218.68)"><path d="M -194.38 247.36 S -140.00 199.36&#10;            0.00 247.36 87.19 94.36&#10;            194.38 247.36 195.76 141.36&#10;            388.76 247.36 402.15 232.36&#10;            583.15 247.36 670.34 120.36&#10;            777.53 247.36 809.91 190.36&#10;            971.91 247.36 h 110 V 1037.3600000000001 H -194.38 Z" fill="#FFFFFF"/><path d="M -194.38 215.00 S -107.19 117.50&#10;            0.00 215.00 87.19 46.00&#10;            194.38 215.00 281.57 74.00&#10;            388.76 215.00 417.15 117.50&#10;            583.15 215.00 655.53 117.50&#10;            777.53 215.00 864.72 41.00&#10;            971.91 215.00 h 110 V -600 H -194.38 Z" fill="#f5f6f7"/></g></svg>